<svg width="276" height="276" viewBox="0 0 276 276" fill="none" xmlns="http://www.w3.org/2000/svg">
<path d="M276 211.086H0V211.224H276V211.086Z" fill="#E0E0E0"/>
<path d="M209.39 216.172H190.401V216.31H209.39V216.172Z" fill="#E0E0E0"/>
<path d="M231.73 215.781H221.043V215.919H231.73V215.781Z" fill="#E0E0E0"/>
<path d="M136.532 216.105H122.356V216.243H136.532V216.105Z" fill="#E0E0E0"/>
<path d="M146.771 218.066H137.089V218.204H146.771V218.066Z" fill="#E0E0E0"/>
<path d="M79.8579 214.711H50.6074V214.849H79.8579V214.711Z" fill="#E0E0E0"/>
<path d="M130.824 186.465H24.2382C23.4032 186.464 22.6029 186.131 22.013 185.54C21.4231 184.949 21.0918 184.148 21.0918 183.313V33.4837C21.0991 32.6535 21.4336 31.8597 22.0227 31.2747C22.6118 30.6897 23.408 30.3608 24.2382 30.3594H130.824C131.66 30.3594 132.462 30.6915 133.053 31.2826C133.644 31.8737 133.976 32.6754 133.976 33.5113V183.313C133.976 184.149 133.644 184.951 133.053 185.542C132.462 186.133 131.66 186.465 130.824 186.465ZM24.2382 30.4698C23.4398 30.4712 22.6746 30.7894 22.1106 31.3545C21.5466 31.9195 21.2298 32.6853 21.2298 33.4837V183.313C21.2298 184.111 21.5466 184.877 22.1106 185.442C22.6746 186.007 23.4398 186.326 24.2382 186.327H130.824C131.623 186.326 132.389 186.008 132.953 185.443C133.518 184.878 133.836 184.112 133.838 183.313V33.4837C133.836 32.6848 133.518 31.919 132.953 31.3541C132.389 30.7892 131.623 30.4712 130.824 30.4698H24.2382Z" fill="#E0E0E0"/>
<path d="M250.227 186.465H143.636C142.8 186.464 141.999 186.131 141.409 185.54C140.818 184.949 140.485 184.149 140.484 183.313V33.4837C140.493 32.653 140.828 31.8592 141.418 31.2744C142.008 30.6895 142.805 30.3608 143.636 30.3594H250.227C251.056 30.3622 251.851 30.6918 252.439 31.2766C253.027 31.8615 253.361 32.6545 253.368 33.4837V183.313C253.368 184.147 253.037 184.947 252.449 185.538C251.86 186.129 251.061 186.462 250.227 186.465ZM143.636 30.4698C142.837 30.4712 142.071 30.7892 141.506 31.3541C140.941 31.919 140.623 32.6848 140.622 33.4837V183.313C140.623 184.112 140.941 184.878 141.506 185.443C142.071 186.008 142.837 186.326 143.636 186.327H250.227C251.026 186.326 251.792 186.008 252.357 185.443C252.921 184.878 253.239 184.112 253.241 183.313V33.4837C253.239 32.6848 252.921 31.919 252.357 31.3541C251.792 30.7892 251.026 30.4712 250.227 30.4698H143.636Z" fill="#E0E0E0"/>
<path d="M239.584 43.7578H156.398V115.275H239.584V43.7578Z" fill="#E0E0E0"/>
<path d="M241.434 43.7578H158.248V115.275H241.434V43.7578Z" fill="#F0F0F0"/>
<path d="M238.116 111.918V47.1133L161.565 47.1133V111.918H238.116Z" fill="#FAFAFA"/>
<path d="M213.651 111.918V47.1133H208.65V111.918H213.651Z" fill="#E0E0E0"/>
<path d="M187.343 111.918V47.1133H182.342V111.918H187.343Z" fill="#E0E0E0"/>
<path d="M215.413 114.044V44.6133H210.411V114.044H215.413Z" fill="#F0F0F0"/>
<path d="M189.099 114.048V44.6172H184.098V114.048H189.099Z" fill="#F0F0F0"/>
<path d="M238.116 111.91V47.1055H236.72V111.91H238.116Z" fill="#E0E0E0"/>
<path d="M97.8918 100.237C97.8918 100.237 87.7681 82.7994 101.817 68.8945C101.817 68.8945 105.482 71.2847 105.427 74.4973C105.371 77.71 101.496 78.5214 102.33 81.2041C103.163 83.8869 106.812 86.5089 104.416 88.7279C102.021 90.9469 104.803 92.9121 104.643 95.6279C104.483 98.3437 97.8918 100.237 97.8918 100.237Z" fill="#E0E0E0"/>
<path d="M99.4816 103.091C99.4816 103.091 103.588 83.3407 85.8803 74.5859C85.8803 74.5859 83.1534 78.0083 84.2243 81.0388C85.2952 84.0693 89.2199 83.6167 89.2751 86.4263C89.3303 89.236 86.6973 92.8792 89.667 94.2261C92.6368 95.573 90.622 98.3219 91.6322 100.85C92.6423 103.378 99.4816 103.091 99.4816 103.091Z" fill="#E6E6E6"/>
<path d="M90.4673 98.0742C90.4673 98.0742 90.6439 115.125 97.4611 115.125C104.278 115.125 104.449 98.0742 104.449 98.0742H90.4673Z" fill="#F0F0F0"/>
<path d="M49.5088 108.711C49.5088 108.711 49.8897 115.125 64.4459 115.125C79.0021 115.125 79.3886 108.711 79.3886 108.711H49.5088Z" fill="#E6E6E6"/>
<path d="M202.97 147.383H195.286C194.329 147.383 193.553 148.159 193.553 149.116V161.823C193.553 162.78 194.329 163.556 195.286 163.556H202.97C203.928 163.556 204.704 162.78 204.704 161.823V149.116C204.704 148.159 203.928 147.383 202.97 147.383Z" fill="#F0F0F0"/>
<path d="M223.35 152.672H218.178C217.535 152.672 217.013 153.193 217.013 153.837V162.393C217.013 163.036 217.535 163.557 218.178 163.557H223.35C223.993 163.557 224.515 163.036 224.515 162.393V153.837C224.515 153.193 223.993 152.672 223.35 152.672Z" fill="#E6E6E6"/>
<path d="M224.123 151.617H217.405C217.189 151.617 217.013 151.793 217.013 152.009V152.451C217.013 152.667 217.189 152.843 217.405 152.843H224.123C224.339 152.843 224.515 152.667 224.515 152.451V152.009C224.515 151.793 224.339 151.617 224.123 151.617Z" fill="#F0F0F0"/>
<path d="M175.768 154.559C175.768 154.559 176.044 163.556 186.582 163.556C197.119 163.556 197.401 154.559 197.401 154.559H175.768Z" fill="#E6E6E6"/>
<path d="M149.559 142.676H165.506V139.529H149.559V142.676Z" fill="#E0E0E0"/>
<path d="M244.79 139.535H165.506V142.682H244.79V139.535Z" fill="#F0F0F0"/>
<path d="M149.559 166.703H165.506V163.557H149.559V166.703Z" fill="#E0E0E0"/>
<path d="M244.79 163.559H165.506V166.705H244.79V163.559Z" fill="#F0F0F0"/>
<path d="M155.305 142.676H152.363V211.08H155.305V142.676Z" fill="#E0E0E0"/>
<path d="M168.449 142.676H165.506V211.08H168.449V142.676Z" fill="#F0F0F0"/>
<path d="M234.589 142.676H231.647V211.08H234.589V142.676Z" fill="#E0E0E0"/>
<path d="M244.79 142.676H241.848V211.08H244.79V142.676Z" fill="#F0F0F0"/>
<path d="M49.5089 119.125H34.4282V206.943H49.5089V119.125Z" fill="#E6E6E6"/>
<path d="M111.692 206.938H37.3262V211.083H111.692V206.938Z" fill="#E6E6E6"/>
<path d="M49.5087 206.938H114.584L114.584 119.12L49.5087 119.12L49.5087 206.938Z" fill="#F0F0F0"/>
<path d="M55.4374 173.758H108.656V152.307H55.4374V173.758Z" fill="#E6E6E6"/>
<path d="M55.4374 199.117H108.656V177.666H55.4374V199.117Z" fill="#E6E6E6"/>
<path d="M88.0222 154.657H76.0713C75.6824 154.656 75.3097 154.5 75.0347 154.225C74.7596 153.95 74.6045 153.578 74.603 153.189C74.603 152.799 74.7575 152.425 75.0328 152.148C75.308 151.872 75.6814 151.716 76.0713 151.715H88.0222C88.4121 151.716 88.7855 151.872 89.0607 152.148C89.3359 152.425 89.4905 152.799 89.4905 153.189C89.489 153.578 89.3339 153.95 89.0588 154.225C88.7838 154.5 88.4111 154.656 88.0222 154.657Z" fill="#F0F0F0"/>
<path d="M55.4374 148.395H108.656V126.944H55.4374V148.395Z" fill="#E6E6E6"/>
<path d="M88.0222 129.302H76.0713C75.6814 129.3 75.308 129.144 75.0328 128.868C74.7575 128.592 74.603 128.218 74.603 127.828C74.6045 127.439 74.7596 127.066 75.0347 126.791C75.3097 126.516 75.6824 126.361 76.0713 126.359H88.0222C88.4111 126.361 88.7838 126.516 89.0588 126.791C89.3339 127.066 89.489 127.439 89.4905 127.828C89.4905 128.218 89.3359 128.592 89.0607 128.868C88.7855 129.144 88.4121 129.3 88.0222 129.302Z" fill="#F0F0F0"/>
<path d="M88.0222 180.016H76.0713C75.6824 180.015 75.3097 179.86 75.0347 179.585C74.7596 179.31 74.6045 178.937 74.603 178.548C74.603 178.158 74.7575 177.784 75.0328 177.508C75.308 177.232 75.6814 177.076 76.0713 177.074H88.0222C88.4121 177.076 88.7855 177.232 89.0607 177.508C89.3359 177.784 89.4905 178.158 89.4905 178.548C89.489 178.937 89.3339 179.31 89.0588 179.585C88.7838 179.86 88.4111 180.015 88.0222 180.016Z" fill="#F0F0F0"/>
<path d="M116.593 115.125H49.5088V119.127H116.593V115.125Z" fill="#E6E6E6"/>
<path d="M32.3195 119.121H49.5088V115.119H32.3195V119.121Z" fill="#E0E0E0"/>
<path d="M66.3173 47.1133H41.9189V73.9074H66.3173V47.1133Z" fill="#E6E6E6"/>
<path d="M68.9612 47.1133H43.7568V73.9074H68.9612V47.1133Z" fill="#F0F0F0"/>
<path d="M66.8472 71.7939V49.2227H45.8657V71.7939H66.8472Z" fill="#FAFAFA"/>
<path d="M61.7632 66.322V54.6914H50.955V66.322H61.7632Z" fill="#F0F0F0"/>
<path d="M92.0406 39.2031H73.5376V59.0806H92.0406V39.2031Z" fill="#E6E6E6"/>
<path d="M94.0058 39.2031H75.3096V59.0806H94.0058V39.2031Z" fill="#F0F0F0"/>
<path d="M92.438 57.5117V40.7695H76.8771V57.5117H92.438Z" fill="#FAFAFA"/>
<path d="M84.6548 44.9062L80.3989 52.281H88.9108L84.6548 44.9062Z" fill="#F0F0F0"/>
<path d="M138 236.013C197.109 236.013 245.027 233.215 245.027 229.764C245.027 226.313 197.109 223.516 138 223.516C78.8904 223.516 30.9727 226.313 30.9727 229.764C30.9727 233.215 78.8904 236.013 138 236.013Z" fill="#F5F5F5"/>
<path d="M231.729 80.4922H177.578C174.721 80.4922 172.406 82.8079 172.406 85.6644V100.392C172.406 103.248 174.721 105.564 177.578 105.564H231.729C234.586 105.564 236.901 103.248 236.901 100.392V85.6644C236.901 82.8079 234.586 80.4922 231.729 80.4922Z" fill="#1E5925"/>
<path d="M220.988 84.7188H178.688C178.188 84.7188 177.783 85.1241 177.783 85.624V86.6176C177.783 87.1176 178.188 87.5229 178.688 87.5229H220.988C221.488 87.5229 221.893 87.1176 221.893 86.6176V85.624C221.893 85.1241 221.488 84.7188 220.988 84.7188Z" fill="#1E5925"/>
<path d="M207.591 91.4766H178.688C178.188 91.4766 177.783 91.8819 177.783 92.3818V93.3754C177.783 93.8754 178.188 94.2807 178.688 94.2807H207.591C208.091 94.2807 208.496 93.8754 208.496 93.3754V92.3818C208.496 91.8819 208.091 91.4766 207.591 91.4766Z" fill="#1E5925"/>
<path d="M199.841 98.2344H178.688C178.188 98.2344 177.783 98.6397 177.783 99.1397V100.133C177.783 100.633 178.188 101.039 178.688 101.039H199.841C200.341 101.039 200.746 100.633 200.746 100.133V99.1397C200.746 98.6397 200.341 98.2344 199.841 98.2344Z" fill="#1E5925"/>
<path d="M226.055 98.2344H204.902C204.402 98.2344 203.997 98.6397 203.997 99.1397V100.133C203.997 100.633 204.402 101.039 204.902 101.039H226.055C226.555 101.039 226.96 100.633 226.96 100.133V99.1397C226.96 98.6397 226.555 98.2344 226.055 98.2344Z" fill="#1E5925"/>
<g opacity="0.5">
<path d="M220.988 84.7188H178.688C178.188 84.7188 177.783 85.1241 177.783 85.624V86.6176C177.783 87.1176 178.188 87.5229 178.688 87.5229H220.988C221.488 87.5229 221.893 87.1176 221.893 86.6176V85.624C221.893 85.1241 221.488 84.7188 220.988 84.7188Z" fill="white"/>
<path d="M207.591 91.4766H178.688C178.188 91.4766 177.783 91.8819 177.783 92.3818V93.3754C177.783 93.8754 178.188 94.2807 178.688 94.2807H207.591C208.091 94.2807 208.496 93.8754 208.496 93.3754V92.3818C208.496 91.8819 208.091 91.4766 207.591 91.4766Z" fill="white"/>
<path d="M199.841 98.2305H178.688C178.188 98.2305 177.783 98.6358 177.783 99.1357V100.129C177.783 100.629 178.188 101.035 178.688 101.035H199.841C200.341 101.035 200.746 100.629 200.746 100.129V99.1357C200.746 98.6358 200.341 98.2305 199.841 98.2305Z" fill="white"/>
<path d="M226.055 98.2305H204.902C204.402 98.2305 203.997 98.6358 203.997 99.1357V100.129C203.997 100.629 204.402 101.035 204.902 101.035H226.055C226.555 101.035 226.96 100.629 226.96 100.129V99.1357C226.96 98.6358 226.555 98.2305 226.055 98.2305Z" fill="white"/>
</g>
<path d="M188.353 74.6484H126.888C122.699 74.6484 119.304 78.0441 119.304 82.2329V103.827C119.304 108.016 122.699 111.412 126.888 111.412H188.353C192.542 111.412 195.938 108.016 195.938 103.827V82.2329C195.938 78.0441 192.542 74.6484 188.353 74.6484Z" fill="#1E5925"/>
<path d="M190.528 80.8438H128.516C127.782 80.8438 127.186 81.4393 127.186 82.1741V83.6258C127.186 84.3605 127.782 84.9561 128.516 84.9561H190.528C191.263 84.9561 191.858 84.3605 191.858 83.6258V82.1741C191.858 81.4393 191.263 80.8438 190.528 80.8438Z" fill="#1E5925"/>
<path d="M170.882 90.7539H128.516C127.782 90.7539 127.186 91.3495 127.186 92.0842V93.536C127.186 94.2707 127.782 94.8663 128.516 94.8663H170.882C171.617 94.8663 172.213 94.2707 172.213 93.536V92.0842C172.213 91.3495 171.617 90.7539 170.882 90.7539Z" fill="#1E5925"/>
<path d="M159.522 100.664H128.516C127.782 100.664 127.186 101.26 127.186 101.994V103.446C127.186 104.181 127.782 104.776 128.516 104.776H159.522C160.257 104.776 160.853 104.181 160.853 103.446V101.994C160.853 101.26 160.257 100.664 159.522 100.664Z" fill="#1E5925"/>
<path d="M192.786 100.664H166.952C166.218 100.664 165.622 101.26 165.622 101.994V103.446C165.622 104.181 166.218 104.776 166.952 104.776H192.786C193.521 104.776 194.116 104.181 194.116 103.446V101.994C194.116 101.26 193.521 100.664 192.786 100.664Z" fill="#1E5925"/>
<g opacity="0.5">
<path d="M190.528 80.8438H128.516C127.782 80.8438 127.186 81.4393 127.186 82.1741V83.6258C127.186 84.3605 127.782 84.9561 128.516 84.9561H190.528C191.263 84.9561 191.858 84.3605 191.858 83.6258V82.1741C191.858 81.4393 191.263 80.8438 190.528 80.8438Z" fill="white"/>
<path d="M170.882 90.7539H128.516C127.782 90.7539 127.186 91.3495 127.186 92.0842V93.536C127.186 94.2707 127.782 94.8663 128.516 94.8663H170.882C171.617 94.8663 172.213 94.2707 172.213 93.536V92.0842C172.213 91.3495 171.617 90.7539 170.882 90.7539Z" fill="white"/>
<path d="M159.522 100.66H128.516C127.782 100.66 127.186 101.256 127.186 101.99V103.442C127.186 104.177 127.782 104.773 128.516 104.773H159.522C160.257 104.773 160.853 104.177 160.853 103.442V101.99C160.853 101.256 160.257 100.66 159.522 100.66Z" fill="white"/>
<path d="M192.785 100.66H166.952C166.217 100.66 165.622 101.256 165.622 101.99V103.442C165.622 104.177 166.217 104.773 166.952 104.773H192.785C193.52 104.773 194.116 104.177 194.116 103.442V101.99C194.116 101.256 193.52 100.66 192.785 100.66Z" fill="white"/>
</g>
<path d="M150.138 118.074H120.535C118.577 118.074 116.991 119.661 116.991 121.618V165.966C116.991 167.923 118.577 169.51 120.535 169.51H150.138C152.096 169.51 153.682 167.923 153.682 165.966V121.618C153.682 119.661 152.096 118.074 150.138 118.074Z" fill="#1E5925"/>
<path opacity="0.4" d="M150.138 118.074H120.535C118.577 118.074 116.991 119.661 116.991 121.618V165.966C116.991 167.923 118.577 169.51 120.535 169.51H150.138C152.096 169.51 153.682 167.923 153.682 165.966V121.618C153.682 119.661 152.096 118.074 150.138 118.074Z" fill="black"/>
<path d="M148.78 123.438H121.887C121.527 123.438 121.235 123.729 121.235 124.089V125.066C121.235 125.426 121.527 125.717 121.887 125.717H148.78C149.14 125.717 149.432 125.426 149.432 125.066V124.089C149.432 123.729 149.14 123.438 148.78 123.438Z" fill="#FAFAFA"/>
<path d="M140.219 128.926H121.887C121.527 128.926 121.236 129.217 121.236 129.577V130.554C121.236 130.914 121.527 131.206 121.887 131.206H140.219C140.579 131.206 140.87 130.914 140.87 130.554V129.577C140.87 129.217 140.579 128.926 140.219 128.926Z" fill="#FAFAFA"/>
<path d="M148.78 134.418H121.887C121.527 134.418 121.235 134.71 121.235 135.069V136.046C121.235 136.406 121.527 136.698 121.887 136.698H148.78C149.14 136.698 149.432 136.406 149.432 136.046V135.069C149.432 134.71 149.14 134.418 148.78 134.418Z" fill="#FAFAFA"/>
<path d="M131.884 139.902H121.887C121.527 139.902 121.236 140.194 121.236 140.554V141.531C121.236 141.89 121.527 142.182 121.887 142.182H131.884C132.244 142.182 132.535 141.89 132.535 141.531V140.554C132.535 140.194 132.244 139.902 131.884 139.902Z" fill="#FAFAFA"/>
<path d="M145.871 139.902H135.875C135.515 139.902 135.223 140.194 135.223 140.554V141.531C135.223 141.89 135.515 142.182 135.875 142.182H145.871C146.231 142.182 146.523 141.89 146.523 141.531V140.554C146.523 140.194 146.231 139.902 145.871 139.902Z" fill="#FAFAFA"/>
<path d="M148.78 145.398H121.887C121.527 145.398 121.235 145.69 121.235 146.05V147.027C121.235 147.387 121.527 147.678 121.887 147.678H148.78C149.14 147.678 149.432 147.387 149.432 147.027V146.05C149.432 145.69 149.14 145.398 148.78 145.398Z" fill="#FAFAFA"/>
<path d="M148.78 150.883H121.887C121.527 150.883 121.235 151.174 121.235 151.534V152.511C121.235 152.871 121.527 153.163 121.887 153.163H148.78C149.14 153.163 149.432 152.871 149.432 152.511V151.534C149.432 151.174 149.14 150.883 148.78 150.883Z" fill="#FAFAFA"/>
<path d="M144.011 156.375H121.887C121.527 156.375 121.235 156.667 121.235 157.026V158.003C121.235 158.363 121.527 158.655 121.887 158.655H144.011C144.371 158.655 144.662 158.363 144.662 158.003V157.026C144.662 156.667 144.371 156.375 144.011 156.375Z" fill="#FAFAFA"/>
<path d="M132.209 161.863H121.887C121.527 161.863 121.235 162.155 121.235 162.515V163.492C121.235 163.851 121.527 164.143 121.887 164.143H132.209C132.569 164.143 132.86 163.851 132.86 163.492V162.515C132.86 162.155 132.569 161.863 132.209 161.863Z" fill="#FAFAFA"/>
<path d="M158.148 117.758H117.084L135.24 132.204L163.077 142.692V122.676C163.074 121.371 162.554 120.12 161.629 119.198C160.705 118.276 159.453 117.758 158.148 117.758Z" fill="#1E5925"/>
<path opacity="0.4" d="M158.148 117.758H117.084L135.24 132.204L163.077 142.692V122.676C163.074 121.371 162.554 120.12 161.629 119.198C160.705 118.276 159.453 117.758 158.148 117.758Z" fill="black"/>
<path d="M156.354 125.199H126.309C125.857 125.199 125.492 125.565 125.492 126.016V127.54C125.492 127.991 125.857 128.357 126.309 128.357H156.354C156.805 128.357 157.171 127.991 157.171 127.54V126.016C157.171 125.565 156.805 125.199 156.354 125.199Z" fill="#FAFAFA"/>
<path d="M229.163 156.861V127.98C229.163 125.767 227.368 123.973 225.155 123.973H175.006C172.793 123.973 170.998 125.767 170.998 127.98V156.861C170.998 159.074 172.793 160.868 175.006 160.868H225.155C227.368 160.868 229.163 159.074 229.163 156.861Z" fill="#1E5925"/>
<path d="M238.32 147.708V118.828C238.32 116.615 236.526 114.82 234.313 114.82H184.164C181.95 114.82 180.156 116.615 180.156 118.828V147.708C180.156 149.922 181.95 151.716 184.164 151.716H234.313C236.526 151.716 238.32 149.922 238.32 147.708Z" fill="#1E5925"/>
<path opacity="0.5" d="M238.32 147.708V118.828C238.32 116.615 236.526 114.82 234.313 114.82H184.164C181.95 114.82 180.156 116.615 180.156 118.828V147.708C180.156 149.922 181.95 151.716 184.164 151.716H234.313C236.526 151.716 238.32 149.922 238.32 147.708Z" fill="white"/>
<path d="M233.231 137.813V120.033C233.231 119.048 232.433 118.25 231.448 118.25H215.059C214.074 118.25 213.276 119.048 213.276 120.033V137.813C213.276 138.798 214.074 139.596 215.059 139.596H231.448C232.433 139.596 233.231 138.798 233.231 137.813Z" fill="#1E5925"/>
<path opacity="0.7" d="M233.231 137.813V120.033C233.231 119.048 232.433 118.25 231.448 118.25H215.059C214.074 118.25 213.276 119.048 213.276 120.033V137.813C213.276 138.798 214.074 139.596 215.059 139.596H231.448C232.433 139.596 233.231 138.798 233.231 137.813Z" fill="white"/>
<path d="M210.152 146.41V132.787C210.152 132.031 209.539 131.418 208.783 131.418H196.225C195.469 131.418 194.856 132.031 194.856 132.787V146.41C194.856 147.166 195.469 147.779 196.225 147.779H208.783C209.539 147.779 210.152 147.166 210.152 146.41Z" fill="#1E5925"/>
<path opacity="0.3" d="M210.152 146.41V132.787C210.152 132.031 209.539 131.418 208.783 131.418H196.225C195.469 131.418 194.856 132.031 194.856 132.787V146.41C194.856 147.166 195.469 147.779 196.225 147.779H208.783C209.539 147.779 210.152 147.166 210.152 146.41Z" fill="white"/>
<path d="M202.501 60.0335V52.6753C202.501 50.4254 200.677 48.6016 198.427 48.6016L63.6675 48.6016C61.4176 48.6016 59.5937 50.4254 59.5937 52.6753V60.0335C59.5937 62.2834 61.4176 64.1072 63.6675 64.1072L198.427 64.1072C200.677 64.1072 202.501 62.2834 202.501 60.0335Z" fill="#1E5925"/>
<path opacity="0.5" d="M202.501 60.0335V52.6753C202.501 50.4254 200.677 48.6016 198.427 48.6016L63.6675 48.6016C61.4176 48.6016 59.5937 50.4254 59.5937 52.6753V60.0335C59.5937 62.2834 61.4176 64.1072 63.6675 64.1072L198.427 64.1072C200.677 64.1072 202.501 62.2834 202.501 60.0335Z" fill="white"/>
<path d="M177.004 66.705V61.3672H138.226V66.705H177.004Z" fill="#1E5925"/>
<path opacity="0.5" d="M177.004 66.705V61.3672H138.226V66.705H177.004Z" fill="white"/>
<path d="M216.406 37.1272V29.7691C216.406 27.5192 214.582 25.6953 212.332 25.6953L77.5722 25.6953C75.3224 25.6953 73.4985 27.5192 73.4985 29.7691V37.1272C73.4985 39.3771 75.3224 41.201 77.5722 41.201L212.332 41.201C214.582 41.201 216.406 39.3771 216.406 37.1272Z" fill="#1E5925"/>
<path d="M71.9585 107.235C71.4727 108.339 70.9373 109.531 70.4681 110.696C69.9989 111.86 69.5131 113.058 69.0881 114.251C68.216 116.575 67.5167 118.961 66.996 121.388L66.8359 122.271L66.7807 122.602C66.7807 122.696 66.7807 122.818 66.7476 122.928C66.7266 123.466 66.7377 124.004 66.7807 124.54C66.8856 125.705 67.0733 126.952 67.3327 128.2C67.7964 130.7 68.387 133.278 68.9887 135.817L66.157 136.921C64.8369 134.515 63.7127 132.006 62.7953 129.42C62.3119 128.073 61.9209 126.696 61.625 125.296C61.4593 124.522 61.3559 123.735 61.3159 122.945C61.3159 122.724 61.3159 122.514 61.3159 122.277C61.3159 122.039 61.3159 121.774 61.3546 121.62L61.465 120.516C61.6299 119.094 61.8825 117.684 62.2212 116.293C62.5303 114.913 62.9278 113.572 63.3252 112.247C63.7226 110.922 64.2194 109.619 64.7438 108.339C65.0033 107.698 65.2958 107.064 65.5498 106.429C65.8037 105.794 66.1018 105.187 66.455 104.508L71.9585 107.235Z" fill="#E4897B"/>
<path d="M68.8398 135.07L70.9926 137.173L66.2951 139.381C66.2951 139.381 65.158 137.389 65.9473 135.589L68.8398 135.07Z" fill="#E4897B"/>
<path d="M72.7316 140.302L68.7627 141.925L66.3008 139.358L70.9928 137.172L72.7316 140.302Z" fill="#E4897B"/>
<path opacity="0.4" d="M153.13 138.041C145.32 137.164 137.945 133.991 131.938 128.923C125.93 123.855 121.561 117.12 119.38 109.569C117.2 102.018 117.308 93.9906 119.69 86.5008C122.071 79.011 126.62 72.3955 132.761 67.4906C138.902 62.5856 146.359 59.6116 154.19 58.9443C162.021 58.277 169.874 59.9465 176.757 63.7417C183.639 67.537 189.242 73.2875 192.856 80.2663C196.471 87.2452 197.935 95.1391 197.064 102.95C196.485 108.14 194.889 113.164 192.368 117.737C189.846 122.309 186.448 126.34 182.368 129.599C178.288 132.858 173.606 135.281 168.589 136.729C163.572 138.178 158.319 138.623 153.13 138.041Z" fill="#FAFAFA"/>
<path opacity="0.4" d="M182.044 67.2288L121.6 115.523C121.346 114.971 121.098 114.419 120.866 113.867C119.35 110.263 118.381 106.453 117.99 102.562L170.198 60.8477C174.484 62.2774 178.492 64.4361 182.044 67.2288Z" fill="#FAFAFA"/>
<path opacity="0.4" d="M195.993 88.3861L139.165 133.788C133.766 130.974 129.088 126.955 125.492 122.042L187.542 72.4609C191.542 77.0519 194.433 82.5004 195.993 88.3861Z" fill="#FAFAFA"/>
<path d="M112.823 83.3518L112.299 83.1752C113.207 80.4952 114.349 77.9001 115.71 75.4196L116.19 75.6845C114.847 78.1373 113.72 80.7028 112.823 83.3518ZM119.525 70.4681L119.077 70.1424C123.614 64.0085 129.551 59.048 136.394 55.6745L136.642 56.1713C129.877 59.51 124.008 64.4175 119.525 70.4847V70.4681ZM180.018 56.9276C178.214 55.96 176.348 55.1136 174.432 54.3939L174.631 53.875C176.566 54.6116 178.45 55.4746 180.272 56.4584L180.018 56.9276Z" fill="#1E5925"/>
<path opacity="0.3" d="M112.823 83.3518L112.299 83.1752C113.207 80.4952 114.349 77.9001 115.71 75.4196L116.19 75.6845C114.847 78.1373 113.72 80.7028 112.823 83.3518ZM119.525 70.4681L119.077 70.1424C123.614 64.0085 129.551 59.048 136.394 55.6745L136.642 56.1713C129.877 59.51 124.008 64.4175 119.525 70.4847V70.4681ZM180.018 56.9276C178.214 55.96 176.348 55.1136 174.432 54.3939L174.631 53.875C176.566 54.6116 178.45 55.4746 180.272 56.4584L180.018 56.9276Z" fill="black"/>
<path d="M198.648 78.2419C193.537 67.6409 184.542 59.4134 173.528 55.2649C162.515 51.1165 150.327 51.3653 139.492 55.9598C128.657 60.5543 120.006 69.1421 115.331 79.9429C110.657 90.7436 110.318 102.929 114.385 113.973C110.698 115.265 107.055 116.65 103.434 118.08C98.2116 120.152 93.0375 122.315 87.9113 124.571C82.7887 126.84 77.6882 129.153 72.6374 131.571C70.1037 132.757 67.6032 134.01 65.0806 135.225C63.7682 135.789 62.5792 136.605 61.5809 137.626C61.0406 138.192 60.5648 138.816 60.1622 139.486C59.671 140.28 59.299 141.141 59.0582 142.042C58.6429 143.666 58.8225 145.386 59.5646 146.889C60.3067 148.393 61.5623 149.581 63.1044 150.239C63.9607 150.598 64.8642 150.833 65.7871 150.935C66.5666 151.023 67.3536 151.023 68.1331 150.935C69.5497 150.763 70.9187 150.315 72.1627 149.615C74.6633 148.351 77.1804 147.131 79.6644 145.834C84.6324 143.301 89.6004 140.657 94.5077 137.974C99.415 135.291 104.328 132.481 109.119 129.6C112.431 127.596 115.776 125.548 119.055 123.407C125.351 133.346 135.23 140.483 146.645 143.337C158.059 146.191 170.135 144.545 180.368 138.738C190.602 132.932 198.21 123.411 201.615 112.149C205.02 100.886 203.962 88.7454 198.659 78.2419H198.648ZM173.554 130.974C167.139 134.141 159.929 135.334 152.836 134.403C145.743 133.472 139.085 130.459 133.705 125.744C128.324 121.03 124.462 114.825 122.608 107.916C120.753 101.007 120.989 93.7027 123.285 86.9274C125.581 80.152 129.835 74.2097 135.508 69.8518C141.182 65.4938 148.02 62.916 155.158 62.4443C162.296 61.9725 169.414 63.628 175.612 67.2014C181.809 70.7748 186.808 76.1057 189.976 82.5199C192.08 86.7796 193.324 91.4121 193.637 96.1527C193.951 100.893 193.327 105.649 191.802 110.149C190.277 114.648 187.881 118.803 184.75 122.377C181.619 125.95 177.814 128.872 173.554 130.974Z" fill="#1E5925"/>
<path opacity="0.3" d="M198.648 78.2419C193.537 67.6409 184.542 59.4134 173.528 55.2649C162.515 51.1165 150.327 51.3653 139.492 55.9598C128.657 60.5543 120.006 69.1421 115.331 79.9429C110.657 90.7436 110.318 102.929 114.385 113.973C110.698 115.265 107.055 116.65 103.434 118.08C98.2116 120.152 93.0375 122.315 87.9113 124.571C82.7887 126.84 77.6882 129.153 72.6374 131.571C70.1037 132.757 67.6032 134.01 65.0806 135.225C63.7682 135.789 62.5792 136.605 61.5809 137.626C61.0406 138.192 60.5648 138.816 60.1622 139.486C59.671 140.28 59.299 141.141 59.0582 142.042C58.6429 143.666 58.8225 145.386 59.5646 146.889C60.3067 148.393 61.5623 149.581 63.1044 150.239C63.9607 150.598 64.8642 150.833 65.7871 150.935C66.5666 151.023 67.3536 151.023 68.1331 150.935C69.5497 150.763 70.9187 150.315 72.1627 149.615C74.6633 148.351 77.1804 147.131 79.6644 145.834C84.6324 143.301 89.6004 140.657 94.5077 137.974C99.415 135.291 104.328 132.481 109.119 129.6C112.431 127.596 115.776 125.548 119.055 123.407C125.351 133.346 135.23 140.483 146.645 143.337C158.059 146.191 170.135 144.545 180.368 138.738C190.602 132.932 198.21 123.411 201.615 112.149C205.02 100.886 203.962 88.7454 198.659 78.2419H198.648ZM173.554 130.974C167.139 134.141 159.929 135.334 152.836 134.403C145.743 133.472 139.085 130.459 133.705 125.744C128.324 121.03 124.462 114.825 122.608 107.916C120.753 101.007 120.989 93.7027 123.285 86.9274C125.581 80.152 129.835 74.2097 135.508 69.8518C141.182 65.4938 148.02 62.916 155.158 62.4443C162.296 61.9725 169.414 63.628 175.612 67.2014C181.809 70.7748 186.808 76.1057 189.976 82.5199C192.08 86.7796 193.324 91.4121 193.637 96.1527C193.951 100.893 193.327 105.649 191.802 110.149C190.277 114.648 187.881 118.803 184.75 122.377C181.619 125.95 177.814 128.872 173.554 130.974Z" fill="black"/>
<path d="M87.2158 87.5203C87.2158 87.846 87.3869 88.111 87.6022 88.111C87.8175 88.111 87.9886 87.846 87.9886 87.5203C87.9886 87.1947 87.8175 86.9297 87.6022 86.9297C87.3869 86.9297 87.2158 87.2167 87.2158 87.5203Z" fill="#263238"/>
<path d="M87.3706 88.1133C87.7613 89.113 88.2869 90.0546 88.9328 90.9119C88.7095 91.0717 88.4539 91.1806 88.1841 91.2312C87.9142 91.2817 87.6366 91.2726 87.3706 91.2045V88.1133Z" fill="#DE5753"/>
<path d="M86.0731 85.7052C86.0423 85.7052 86.0119 85.6983 85.9842 85.6849C85.9565 85.6715 85.9322 85.652 85.913 85.6279C85.8843 85.5858 85.8728 85.5342 85.881 85.4838C85.8892 85.4335 85.9165 85.3882 85.9572 85.3574C86.2003 85.1731 86.4844 85.0502 86.7852 84.9992C87.086 84.9483 87.3947 84.9708 87.6849 85.0649C87.711 85.072 87.7353 85.0845 87.7562 85.1015C87.7772 85.1186 87.7943 85.1399 87.8065 85.164C87.8187 85.1881 87.8257 85.2145 87.8271 85.2415C87.8285 85.2684 87.8242 85.2954 87.8145 85.3206C87.8048 85.3458 87.7899 85.3687 87.7708 85.3879C87.7517 85.407 87.7288 85.4219 87.7036 85.4316C87.6784 85.4413 87.6514 85.4456 87.6244 85.4442C87.5974 85.4429 87.5711 85.4359 87.5469 85.4237C87.3164 85.353 87.0722 85.3386 86.835 85.3818C86.5977 85.4251 86.3743 85.5246 86.1835 85.6721C86.1508 85.6938 86.1124 85.7053 86.0731 85.7052Z" fill="#263238"/>
<path d="M76.0652 89.9766C76.6172 92.9408 77.2244 98.378 75.1489 100.36C75.1489 100.36 75.9604 103.368 81.4748 103.368C87.5468 103.368 84.3673 100.36 84.3673 100.36C81.0553 99.5648 81.1492 97.1139 81.7232 94.8066L76.0652 89.9766Z" fill="#E4897B"/>
<path d="M72.6708 101.923C73.3276 100.902 72.2236 98.4231 72.2236 98.4231C72.2236 98.4231 81.983 95.9667 85.974 99.7368C86.802 100.515 85.8856 101.663 85.8856 101.663L72.6708 101.923Z" fill="#1E5925"/>
<path opacity="0.1" d="M72.6708 101.923C73.3276 100.902 72.2236 98.4231 72.2236 98.4231C72.2236 98.4231 81.983 95.9667 85.974 99.7368C86.802 100.515 85.8856 101.663 85.8856 101.663L72.6708 101.923Z" fill="black"/>
<path d="M56.5249 214.549C56.0116 214.549 55.1891 213.693 54.9462 213.373C54.9358 213.358 54.9302 213.34 54.9302 213.321C54.9302 213.302 54.9358 213.284 54.9462 213.268C54.9551 213.253 54.968 213.24 54.9835 213.232C54.9991 213.223 55.0167 213.218 55.0345 213.219C55.0952 213.219 56.4476 213.34 56.8175 213.82C56.8577 213.871 56.8864 213.93 56.9017 213.993C56.9169 214.056 56.9183 214.121 56.9058 214.185C56.901 214.267 56.8708 214.346 56.8194 214.41C56.768 214.474 56.6979 214.521 56.6188 214.544L56.5249 214.549ZM55.2443 213.445C55.6472 213.909 56.2931 214.433 56.5691 214.367C56.5691 214.367 56.6795 214.339 56.7126 214.163C56.7199 214.126 56.7187 214.088 56.7091 214.051C56.6995 214.015 56.6819 213.981 56.6574 213.953C56.2485 213.643 55.7565 213.463 55.2443 213.434V213.445Z" fill="#1E5925"/>
<path d="M55.3046 213.432C55.2055 213.442 55.1057 213.442 55.0066 213.432C54.9891 213.431 54.9725 213.425 54.9587 213.414C54.9449 213.403 54.9347 213.388 54.9293 213.372C54.9215 213.356 54.9175 213.339 54.9175 213.322C54.9175 213.305 54.9215 213.288 54.9293 213.272C54.9679 213.239 55.7794 212.395 56.3921 212.395C56.4654 212.393 56.5382 212.407 56.6058 212.435C56.6734 212.464 56.7341 212.507 56.784 212.56C56.839 212.606 56.8766 212.67 56.8906 212.74C56.9047 212.81 56.8943 212.883 56.8613 212.947C56.7012 213.256 55.8566 213.432 55.3046 213.432ZM55.2329 213.239C55.7849 213.239 56.5853 213.068 56.7178 212.825C56.7178 212.825 56.7564 212.753 56.6681 212.665C56.636 212.63 56.5966 212.603 56.5527 212.585C56.5089 212.567 56.4616 212.558 56.4142 212.56C55.9617 212.664 55.5504 212.9 55.2329 213.239Z" fill="#1E5925"/>
<path d="M92.9509 227.078C92.5325 227.076 92.1152 227.037 91.7034 226.963C91.683 226.959 91.6645 226.948 91.6514 226.931C91.6383 226.915 91.6313 226.895 91.6317 226.874C91.6286 226.855 91.6311 226.836 91.6389 226.818C91.6468 226.8 91.6596 226.785 91.6758 226.775C91.7365 226.742 93.1496 225.93 93.8286 226.118C93.8916 226.132 93.951 226.159 94.0032 226.197C94.0554 226.235 94.0993 226.283 94.1322 226.339C94.1754 226.4 94.1987 226.473 94.1987 226.549C94.1987 226.624 94.1754 226.697 94.1322 226.758C93.9721 227.007 93.4698 227.078 92.9509 227.078ZM92.018 226.819C92.7688 226.929 93.7955 226.924 93.9832 226.659C94.0108 226.626 94.0328 226.565 93.9832 226.449C93.941 226.38 93.8737 226.331 93.7955 226.311C93.3649 226.201 92.5093 226.565 92.018 226.819Z" fill="#1E5925"/>
<path d="M91.7259 226.968C91.7078 226.973 91.6887 226.973 91.6707 226.968C91.6554 226.958 91.6435 226.944 91.6365 226.927C91.6296 226.91 91.6281 226.892 91.632 226.874C91.6694 226.3 91.89 225.752 92.2613 225.312C92.3364 225.247 92.4246 225.199 92.5199 225.172C92.6151 225.144 92.7152 225.137 92.8133 225.152C93.0783 225.152 93.1556 225.312 93.1721 225.417C93.2439 225.875 92.2779 226.753 91.7866 226.974L91.7259 226.968ZM92.714 225.312C92.5925 225.311 92.4748 225.354 92.3828 225.434C92.0706 225.782 91.8773 226.221 91.8308 226.687C92.3276 226.383 92.99 225.698 92.9348 225.422C92.9348 225.422 92.9348 225.329 92.7471 225.312H92.714Z" fill="#1E5925"/>
<path d="M87.2656 226.866H91.3228L91.7258 217.477H87.6686L87.2656 226.866Z" fill="#E4897B"/>
<path d="M51.1372 210.748L54.5265 212.967L62.0116 206.646L58.6168 204.422L51.1372 210.748Z" fill="#E4897B"/>
<path d="M55.084 212.759L51.5622 209.872C51.5 209.821 51.4219 209.793 51.3414 209.793C51.2609 209.793 51.1828 209.821 51.1206 209.872L48.2171 212.152C48.1469 212.208 48.0903 212.279 48.0513 212.359C48.0124 212.44 47.9922 212.529 47.9922 212.618C47.9922 212.708 48.0124 212.796 48.0513 212.877C48.0903 212.958 48.1469 213.029 48.2171 213.085C49.4646 214.073 50.1215 214.492 51.6726 215.762C52.6276 216.54 54.9846 218.925 56.3149 220.001C57.6452 221.078 58.8652 219.918 58.4236 219.361C56.4419 216.849 55.6636 214.702 55.4372 213.372C55.3981 213.131 55.2725 212.913 55.084 212.759Z" fill="#263238"/>
<path d="M91.295 226.398H86.879C86.7985 226.399 86.7204 226.426 86.6573 226.476C86.5943 226.526 86.5499 226.596 86.5313 226.674L85.7309 230.279C85.7108 230.366 85.7108 230.457 85.731 230.544C85.7511 230.632 85.7909 230.713 85.8473 230.783C85.9037 230.853 85.9752 230.909 86.0564 230.947C86.1376 230.985 86.2264 231.004 86.316 231.002C87.9113 230.975 90.2186 230.881 92.2279 230.881C94.5739 230.881 96.6053 231.008 99.3542 231.008C101.01 231.008 101.485 229.324 100.784 229.175C97.6154 228.479 95.021 228.408 92.2831 226.713C91.9893 226.519 91.6472 226.41 91.295 226.398Z" fill="#263238"/>
<path d="M67.1562 101.568C63.64 103.224 61.6362 114.319 61.6362 114.319L70.2309 117.747C71.4889 114.675 72.5058 111.51 73.2724 108.28C74.4537 103.169 70.7553 99.8567 67.1562 101.568Z" fill="#263238"/>
<path d="M71.7156 107.822C69.5904 109.975 68.6189 114.192 68.1938 116.936L70.2528 117.758C71.4751 114.773 72.4715 111.701 73.2336 108.567C73.0514 107.397 72.5988 106.928 71.7156 107.822Z" fill="#203048"/>
<path d="M90.6049 101.492C90.6049 101.492 94.9216 106.371 90.8478 136.544H69.1597C69.0107 133.232 71.1028 116.975 67.8901 101.287C70.287 100.823 72.7118 100.517 75.1489 100.371C78.219 100.189 81.2972 100.189 84.3673 100.371C86.4724 100.583 88.5578 100.958 90.6049 101.492Z" fill="#263238"/>
<path d="M92.5868 113.205L88.9326 106.906C88.2271 109.845 87.9391 112.868 88.077 115.887C88.1763 118.051 90.158 126.066 91.941 127.236C92.4141 122.575 92.6297 117.89 92.5868 113.205Z" fill="#203048"/>
<path d="M93.0947 105.805C93.6467 108.487 94.1987 111.236 94.7894 113.93C95.38 116.624 95.9927 119.329 96.7048 121.94C96.887 122.585 97.0581 123.248 97.2568 123.866L97.4059 124.341L97.4776 124.578V124.551C97.439 124.501 97.3948 124.495 97.4279 124.551C97.6548 124.798 97.9449 124.98 98.267 125.075C98.7888 125.269 99.3262 125.419 99.8733 125.522C102.483 125.936 105.126 126.108 107.767 126.035L108.291 129.038C107.552 129.276 106.862 129.447 106.133 129.618C105.404 129.789 104.687 129.933 103.953 130.043C102.434 130.296 100.894 130.399 99.3544 130.352C98.4989 130.329 97.648 130.218 96.8152 130.021C95.7563 129.789 94.7613 129.328 93.9007 128.669C93.3386 128.215 92.8747 127.651 92.5372 127.013C92.4489 126.847 92.3716 126.659 92.2999 126.499L92.2005 126.24L91.9963 125.688C91.7147 124.987 91.4829 124.297 91.229 123.607C90.2961 120.847 89.5178 118.059 88.8333 115.277C88.1488 112.495 87.5582 109.718 87.0669 106.865L93.0947 105.805Z" fill="#E4897B"/>
<path d="M85.1901 104.452C84.0475 108.156 88.6788 119.201 88.6788 119.201L97.9027 116.883C97.9027 116.883 97.5494 111.142 95.4463 106.588C92.2778 99.7212 86.5591 100.008 85.1901 104.452Z" fill="#263238"/>
<path d="M107.689 126.034L112.282 125.918L110.074 130.698C110.074 130.698 108.203 130.947 106.668 128.424L105.051 126.492L106.911 126.122C107.167 126.068 107.428 126.039 107.689 126.034Z" fill="#E4897B"/>
<path d="M115.18 126.807L112.553 130.77L110.074 130.698L112.282 125.918L115.18 126.807Z" fill="#E4897B"/>
<path d="M91.7259 217.477L91.5162 222.318H87.459L87.6687 217.477H91.7259Z" fill="#CE6F64"/>
<path d="M58.6168 204.422L62.0116 206.646L58.1476 209.903L54.7583 207.684L58.6168 204.422Z" fill="#CE6F64"/>
<path d="M76.3193 86.8194C76.5622 90.8325 76.5015 93.2006 78.5273 95.2595C81.5743 98.3673 86.5368 96.5291 87.4973 92.4995C88.3639 88.8894 87.823 82.9278 83.8927 81.327C83.0255 80.977 82.0836 80.853 81.1554 80.9668C80.2271 81.0805 79.343 81.4282 78.5859 81.9772C77.8289 82.5262 77.2237 83.2586 76.8273 84.1056C76.4308 84.9526 76.256 85.8864 76.3193 86.8194Z" fill="#E4897B"/>
<path d="M71.5943 86.1131C72.5934 89.7729 74.945 93.9901 77.9865 94.2606C81.7622 94.5918 83.4678 90.6892 83.9646 86.6596C86.2278 85.1085 85.041 83.4028 87.3098 83.1875C90.2243 82.9115 89.2914 77.5792 85.455 76.7236C85.455 76.7236 86.7412 79.1248 84.0419 77.9104C81.4749 76.6904 78.623 76.196 75.795 76.4807C75.795 76.4807 79.2395 78.2029 75.8723 78.9702C72.5051 79.7375 71.5005 81.813 73.0516 83.0661C73.0516 83.0716 70.9374 83.7064 71.5943 86.1131Z" fill="#263238"/>
<path d="M81.6629 87.4865C81.737 88.484 82.1387 89.4291 82.8055 90.1748C83.6887 91.1518 84.6106 90.5446 84.7651 89.3578C84.9086 88.2924 84.6161 86.4984 83.5342 85.9575C82.4522 85.4165 81.5911 86.2832 81.6629 87.4865Z" fill="#E4897B"/>
<path d="M83.1534 136.545C83.1534 136.545 87.1057 165.166 83.9924 176.636C79.0575 194.797 60.1902 210.126 60.1902 210.126L53.7925 205.931C53.7925 205.931 69.8612 192.987 71.8263 177.779C73.5927 164.128 69.1602 147.618 69.1602 136.539L83.1534 136.545Z" fill="#1E5925"/>
<path opacity="0.1" d="M83.1534 136.545C83.1534 136.545 87.1057 165.166 83.9924 176.636C79.0575 194.797 60.1902 210.126 60.1902 210.126L53.7925 205.931C53.7925 205.931 69.8612 192.987 71.8263 177.779C73.5927 164.128 69.1602 147.618 69.1602 136.539L83.1534 136.545Z" fill="black"/>
<path d="M84.7872 152.906C83.735 151.7 82.5767 150.592 81.3262 149.594C81.9996 158.884 82.5516 172.645 81.9389 182.421C82.7627 180.547 83.449 178.616 83.9923 176.642C85.5103 171.039 85.3503 161.362 84.7872 152.906Z" fill="#1E5925"/>
<path opacity="0.3" d="M84.7872 152.906C83.735 151.7 82.5767 150.592 81.3262 149.594C81.9996 158.884 82.5516 172.645 81.9389 182.421C82.7627 180.547 83.449 178.616 83.9923 176.642C85.5103 171.039 85.3503 161.362 84.7872 152.906Z" fill="black"/>
<path d="M62.7676 208.694C62.7952 208.694 60.2891 210.35 60.2891 210.35L53.3008 205.769L55.5088 203.941L62.7676 208.694Z" fill="#1E5925"/>
<path opacity="0.3" d="M62.7676 208.694C62.7952 208.694 60.2891 210.35 60.2891 210.35L53.3008 205.769L55.5088 203.941L62.7676 208.694Z" fill="black"/>
<path d="M90.848 136.543C90.848 136.543 96.9531 162.432 97.3837 174.802C97.8694 188.668 93.0284 221.38 93.0284 221.38H86.156C86.156 221.38 85.3114 188.414 85.0078 175.785C84.6711 162.012 76.5898 136.543 76.5898 136.543H90.848Z" fill="#1E5925"/>
<path opacity="0.1" d="M90.848 136.543C90.848 136.543 96.9531 162.432 97.3837 174.802C97.8694 188.668 93.0284 221.38 93.0284 221.38H86.156C86.156 221.38 85.3114 188.414 85.0078 175.785C84.6711 162.012 76.5898 136.543 76.5898 136.543H90.848Z" fill="black"/>
<path d="M94.3479 218.648C94.3811 218.648 93.9615 221.497 93.9615 221.497H85.6043L85.3779 218.952L94.3479 218.648Z" fill="#1E5925"/>
<path opacity="0.3" d="M94.3479 218.648C94.3811 218.648 93.9615 221.497 93.9615 221.497H85.6043L85.3779 218.952L94.3479 218.648Z" fill="black"/>
<path d="M196.512 111.664C196.981 112.106 197.351 112.481 197.738 112.901C198.124 113.32 198.488 113.729 198.842 114.154C199.559 114.998 200.233 115.887 200.884 116.781C202.185 118.575 203.342 120.469 204.345 122.445L204.549 122.848C204.649 123.043 204.732 123.246 204.798 123.455C204.931 123.859 205.013 124.278 205.041 124.702C205.076 125.451 204.973 126.199 204.737 126.91C204.334 128.091 203.735 129.196 202.965 130.178C201.578 131.959 199.942 133.532 198.107 134.848L196.733 133.269C197.379 132.513 198.052 131.702 198.654 130.89C199.266 130.104 199.82 129.274 200.31 128.406C200.768 127.649 201.107 126.826 201.315 125.966C201.386 125.659 201.399 125.34 201.353 125.028C201.333 124.923 201.3 124.821 201.254 124.724C201.233 124.682 201.209 124.641 201.182 124.603L201.005 124.305C199.941 122.569 198.786 120.89 197.544 119.276C196.932 118.465 196.275 117.686 195.612 116.919C195.287 116.533 194.95 116.157 194.613 115.782C194.277 115.407 193.912 115.031 193.62 114.739L196.512 111.664Z" fill="#E4897B"/>
<path d="M197.263 132.806L193.139 132.133L195.297 135.743C195.297 135.743 197.953 135.649 198.709 134.087L197.263 132.806Z" fill="#E4897B"/>
<path d="M190.092 133.8L192.057 136.731L195.298 135.743L193.139 132.133L190.092 133.8Z" fill="#E4897B"/>
<path d="M197.064 227.027C196.784 227.051 196.504 226.975 196.275 226.812C196.206 226.746 196.155 226.664 196.127 226.573C196.099 226.482 196.094 226.386 196.115 226.293C196.119 226.234 196.139 226.177 196.173 226.128C196.207 226.079 196.254 226.041 196.308 226.017C196.788 225.802 198.047 226.608 198.19 226.701C198.207 226.711 198.219 226.727 198.226 226.745C198.233 226.762 198.234 226.782 198.229 226.801C198.227 226.82 198.219 226.837 198.206 226.851C198.193 226.865 198.176 226.875 198.157 226.878C197.8 226.969 197.433 227.019 197.064 227.027ZM196.512 226.171C196.472 226.165 196.431 226.165 196.391 226.171C196.366 226.183 196.346 226.201 196.331 226.223C196.317 226.246 196.309 226.272 196.308 226.298C196.293 226.36 196.295 226.424 196.312 226.485C196.33 226.546 196.362 226.602 196.407 226.646C196.617 226.834 197.158 226.861 197.881 226.718C197.467 226.444 197.001 226.258 196.512 226.171Z" fill="#1E5925"/>
<path d="M198.168 226.869H198.118C197.727 226.643 196.97 225.765 197.064 225.285C197.082 225.209 197.124 225.141 197.184 225.092C197.243 225.042 197.318 225.013 197.395 225.009C197.47 224.998 197.546 225.005 197.618 225.028C197.689 225.05 197.755 225.089 197.809 225.141C198.262 225.539 198.267 226.731 198.267 226.797C198.266 226.814 198.261 226.831 198.253 226.845C198.244 226.859 198.232 226.871 198.218 226.88L198.168 226.869ZM197.462 225.213H197.417C197.296 225.213 197.268 225.279 197.257 225.329C197.202 225.611 197.671 226.284 198.063 226.599C198.073 226.136 197.94 225.681 197.682 225.296C197.649 225.265 197.61 225.242 197.567 225.228C197.524 225.213 197.479 225.208 197.434 225.213H197.462Z" fill="#1E5925"/>
<path d="M178.252 227.024C177.9 227.058 177.547 226.968 177.253 226.77C177.187 226.712 177.136 226.638 177.104 226.555C177.072 226.472 177.061 226.383 177.071 226.296C177.074 226.242 177.091 226.19 177.12 226.145C177.149 226.099 177.189 226.062 177.236 226.036C177.75 225.749 179.395 226.588 179.582 226.693C179.6 226.704 179.613 226.72 179.622 226.738C179.631 226.757 179.634 226.777 179.632 226.798C179.629 226.817 179.62 226.835 179.606 226.849C179.592 226.863 179.574 226.872 179.555 226.875C179.126 226.966 178.69 227.016 178.252 227.024ZM177.518 226.169C177.455 226.164 177.392 226.178 177.336 226.207C177.316 226.217 177.299 226.231 177.287 226.25C177.276 226.269 177.27 226.29 177.27 226.312C177.261 226.37 177.267 226.428 177.286 226.483C177.305 226.538 177.337 226.587 177.38 226.627C177.634 226.853 178.313 226.892 179.229 226.737C178.695 226.453 178.116 226.26 177.518 226.169Z" fill="#1E5925"/>
<path d="M179.538 226.872H179.494C179.003 226.651 178.026 225.768 178.103 225.288C178.103 225.178 178.202 225.04 178.473 225.012C178.572 225.001 178.672 225.011 178.766 225.04C178.861 225.07 178.949 225.118 179.025 225.183C179.544 225.614 179.643 226.729 179.643 226.778C179.645 226.795 179.643 226.812 179.636 226.828C179.629 226.843 179.618 226.857 179.604 226.867C179.584 226.876 179.56 226.878 179.538 226.872ZM178.55 225.216H178.489C178.313 225.216 178.302 225.305 178.296 225.327C178.252 225.608 178.914 226.309 179.4 226.613C179.352 226.141 179.159 225.696 178.848 225.338C178.764 225.266 178.66 225.224 178.55 225.216Z" fill="#1E5925"/>
<path d="M186.063 98.9727C185.903 101.468 185.472 106.535 187.388 107.937C187.388 107.937 187.04 110.493 182.519 111.089C177.551 111.735 179.82 108.931 179.82 108.931C182.453 107.926 182.116 105.922 181.398 104.09L186.063 98.9727Z" fill="#E4897B"/>
<path d="M175.779 94.5623C175.752 94.5624 175.725 94.5565 175.7 94.545C175.675 94.5336 175.653 94.5169 175.635 94.4961C175.477 94.3088 175.278 94.1613 175.052 94.0654C174.827 93.9695 174.582 93.928 174.338 93.9441C174.312 93.9488 174.286 93.9482 174.26 93.9423C174.235 93.9364 174.211 93.9254 174.189 93.9099C174.168 93.8944 174.15 93.8748 174.137 93.8522C174.124 93.8296 174.115 93.8045 174.112 93.7785C174.106 93.7265 174.12 93.6743 174.152 93.6329C174.184 93.5916 174.231 93.5646 174.283 93.5577C174.595 93.5313 174.908 93.5808 175.196 93.7019C175.485 93.8231 175.74 94.0122 175.939 94.2532C175.963 94.282 175.978 94.3169 175.983 94.354C175.988 94.3911 175.982 94.4288 175.967 94.4629C175.951 94.4969 175.926 94.5258 175.895 94.5464C175.864 94.5669 175.827 94.5781 175.79 94.5789L175.779 94.5623Z" fill="#263238"/>
<path d="M174.918 97.0078C174.722 97.7995 174.419 98.5609 174.018 99.271C174.202 99.3702 174.406 99.4275 174.615 99.439C174.824 99.4504 175.033 99.4157 175.227 99.3373L174.918 97.0078Z" fill="#DE5753"/>
<path d="M175.139 96.4004C175.183 96.7316 175.045 97.0186 174.829 97.0517C174.614 97.0849 174.399 96.8309 174.36 96.4997C174.322 96.1685 174.454 95.8815 174.669 95.8539C174.885 95.8263 175.1 96.0471 175.139 96.4004Z" fill="#263238"/>
<path d="M174.769 95.8574L173.946 95.7305C173.946 95.7305 174.432 96.299 174.769 95.8574Z" fill="#263238"/>
<path d="M184.086 226.784H179.946L179.67 217.207H183.81L184.086 226.784Z" fill="#E4897B"/>
<path d="M202.882 226.784H198.742L197.412 217.207H201.552L202.882 226.784Z" fill="#E4897B"/>
<path d="M198.488 226.32H203.136C203.215 226.32 203.292 226.348 203.352 226.4C203.412 226.451 203.451 226.523 203.462 226.602L204.014 230.284C204.024 230.377 204.014 230.47 203.986 230.559C203.957 230.648 203.91 230.73 203.847 230.799C203.785 230.869 203.708 230.924 203.623 230.962C203.537 230.999 203.445 231.018 203.351 231.018C201.734 230.99 200.95 230.896 198.908 230.896C197.649 230.896 195.811 231.023 194.078 231.023C192.345 231.023 192.251 229.307 192.974 229.152C196.214 228.457 196.727 227.496 197.815 226.574C198.005 226.417 198.242 226.327 198.488 226.32Z" fill="#263238"/>
<path d="M179.808 226.32H184.451C184.531 226.319 184.608 226.347 184.669 226.399C184.73 226.451 184.77 226.523 184.782 226.602L185.334 230.284C185.344 230.377 185.334 230.47 185.306 230.559C185.277 230.648 185.23 230.73 185.167 230.799C185.105 230.869 185.028 230.924 184.943 230.962C184.857 230.999 184.765 231.018 184.671 231.018C183.054 230.99 182.27 230.896 180.228 230.896C178.969 230.896 176.364 231.023 174.631 231.023C172.897 231.023 172.803 229.307 173.527 229.152C176.767 228.457 178.042 227.496 179.135 226.574C179.325 226.417 179.562 226.327 179.808 226.32Z" fill="#263238"/>
<path d="M179.67 217.207L179.814 222.147H183.954L183.81 217.207H179.67Z" fill="#CE6F64"/>
<path d="M201.552 217.207H197.412L198.102 222.147H202.236L201.552 217.207Z" fill="#CE6F64"/>
<path d="M186.118 93.8065C186.399 97.9024 186.604 99.6301 184.826 101.987C182.149 105.525 177.06 104.979 175.558 101.049C174.206 97.5104 173.974 91.4108 177.739 89.2691C178.567 88.7944 179.502 88.5393 180.457 88.5278C181.411 88.5162 182.353 88.7488 183.192 89.2033C184.032 89.6578 184.741 90.3193 185.253 91.1249C185.765 91.9305 186.063 92.8536 186.118 93.8065Z" fill="#E4897B"/>
<path d="M188.503 97.6092C190.799 98.8898 192.505 95.7324 192.505 95.7324C192.505 95.7324 188.387 96.1795 188.757 93.7286C189.242 90.4773 186.913 86.525 181.073 87.0328C180.747 87.0604 180.438 87.0991 180.134 87.1488C179.523 86.859 178.832 86.7841 178.172 86.9364C177.513 87.0887 176.925 87.4592 176.502 87.9878C174.846 88.1258 172.611 90.102 174.129 92.7129C174.235 92.4129 174.4 92.1371 174.614 91.9015C174.741 93.4305 176.077 95.8593 177.744 96.0194C178.103 98.1115 176.712 100.535 177.192 102.721C177.904 105.873 183.22 106.585 183.22 106.585C183.037 106.191 182.968 105.754 183.023 105.323C183.078 104.892 183.253 104.486 183.529 104.15C187.139 105.806 189.518 104.189 189.518 104.189C187.056 103.273 187.802 101.639 187.802 101.639C188.652 102.016 189.615 102.049 190.489 101.731C191.363 101.413 192.08 100.769 192.488 99.9331C191.67 99.9719 190.859 99.7731 190.152 99.3607C189.444 98.9483 188.872 98.34 188.503 97.6092Z" fill="#263238"/>
<path d="M179.185 96.6493C179.194 97.0424 179.126 97.4335 178.984 97.8001C178.842 98.1667 178.629 98.5016 178.357 98.7855C177.628 99.5418 176.734 99.0118 176.491 98.0458C176.276 97.1737 176.397 95.733 177.347 95.3355C177.556 95.2534 177.782 95.2248 178.005 95.2524C178.227 95.2799 178.44 95.3627 178.622 95.4933C178.805 95.6238 178.952 95.798 179.05 95.9999C179.149 96.2017 179.195 96.425 179.185 96.6493Z" fill="#E4897B"/>
<path d="M182.624 134.81C182.624 134.81 183.672 162.057 186.167 178.054C188.177 190.982 197.103 221.187 197.103 221.187H202.744C202.744 221.187 198.091 192.014 197.069 179.235C194.486 146.893 201.193 139.949 194.861 133.215L182.624 134.81Z" fill="#263238"/>
<path d="M187.338 143.425C187.338 143.425 184.788 142.983 183.297 147.841C183.849 157.042 184.793 169.253 186.168 178.051C186.471 180.011 186.935 182.374 187.504 184.963C186.427 169.418 187.338 143.425 187.338 143.425Z" fill="#161F33"/>
<path d="M178.224 135.381C178.224 135.381 173.576 165.526 173.847 178.139C174.128 191.26 178.936 221.195 178.936 221.195H184.528C184.528 221.195 183.645 192.038 184.136 179.155C184.688 165.106 190.423 133.797 190.423 133.797L178.224 135.381Z" fill="#263238"/>
<path d="M203.561 221.451H196.059L195.474 218.934L203.506 218.989L203.561 221.451Z" fill="#1E5925"/>
<path opacity="0.2" d="M203.561 221.451H196.059L195.474 218.934L203.506 218.989L203.561 221.451Z" fill="black"/>
<path d="M194.58 107.941C196.738 108.151 200.017 114.284 200.017 114.284L194.569 118.463C194.569 118.463 190.059 114.505 190.594 112.28C191.152 109.967 192.51 107.748 194.58 107.941Z" fill="#1E5925"/>
<path opacity="0.1" d="M194.58 107.941C196.738 108.151 200.017 114.284 200.017 114.284L194.569 118.463C194.569 118.463 190.059 114.505 190.594 112.28C191.152 109.967 192.51 107.748 194.58 107.941Z" fill="black"/>
<path d="M192.952 110.579C192.401 110.431 191.832 110.368 191.262 110.392C190.973 110.995 190.749 111.628 190.595 112.279C190.043 114.487 194.569 118.462 194.569 118.462L194.972 118.153L192.952 110.579Z" fill="#1E5925"/>
<path opacity="0.3" d="M192.952 110.579C192.401 110.431 191.832 110.368 191.262 110.392C190.973 110.995 190.749 111.628 190.595 112.279C190.043 114.487 194.569 118.462 194.569 118.462L194.972 118.153L192.952 110.579Z" fill="black"/>
<path d="M176.375 116.472C174.802 120.452 173.146 124.498 171.827 128.489C171.738 128.743 171.667 128.986 171.589 129.235L171.402 129.847C171.35 130.028 171.35 130.219 171.402 130.399C171.713 131.089 172.208 131.681 172.831 132.111C174.482 133.295 176.28 134.258 178.18 134.975L177.683 137.007C175.346 136.699 173.085 135.961 171.015 134.832C169.741 134.151 168.704 133.101 168.04 131.818C167.659 130.998 167.526 130.085 167.659 129.19C167.672 129.081 167.69 128.972 167.714 128.865L167.769 128.633L167.863 128.213C167.93 127.932 167.996 127.661 168.068 127.385C168.62 125.177 169.326 123.08 170.071 120.999C170.816 118.918 171.595 116.864 172.472 114.816L176.375 116.472Z" fill="#E4897B"/>
<path d="M173.025 110.883C173.025 110.883 171.159 111.827 178.224 135.381L194.884 133.206C193.714 126.46 193.162 122.282 194.58 107.941C192.191 107.77 189.793 107.77 187.404 107.941C184.861 108.089 182.332 108.421 179.836 108.934C176.64 109.646 173.025 110.883 173.025 110.883Z" fill="#1E5925"/>
<path opacity="0.1" d="M173.025 110.883C173.025 110.883 171.159 111.827 178.224 135.381L194.884 133.206C193.714 126.46 193.162 122.282 194.58 107.941C192.191 107.77 189.793 107.77 187.404 107.941C184.861 108.089 182.332 108.421 179.836 108.934C176.64 109.646 173.025 110.883 173.025 110.883Z" fill="black"/>
<path d="M195.005 132.197L195.96 133.582C196.032 133.693 195.91 133.825 195.723 133.853L178.252 136.138C178.103 136.138 177.965 136.1 177.943 136.006L177.601 134.532C177.573 134.433 177.694 134.328 177.86 134.306L194.729 132.098C194.78 132.089 194.832 132.094 194.88 132.112C194.928 132.129 194.971 132.158 195.005 132.197Z" fill="#1E5925"/>
<path opacity="0.2" d="M195.005 132.197L195.96 133.582C196.032 133.693 195.91 133.825 195.723 133.853L178.252 136.138C178.103 136.138 177.965 136.1 177.943 136.006L177.601 134.532C177.573 134.433 177.694 134.328 177.86 134.306L194.729 132.098C194.78 132.089 194.832 132.094 194.88 132.112C194.928 132.129 194.971 132.158 195.005 132.197Z" fill="black"/>
<path d="M192.985 134.379L193.437 134.319C193.526 134.319 193.586 134.252 193.575 134.197L193.112 132.287C193.094 132.255 193.066 132.229 193.032 132.215C192.997 132.201 192.959 132.199 192.924 132.21L192.471 132.265C192.377 132.265 192.317 132.332 192.333 132.392L192.797 134.297C192.808 134.357 192.896 134.39 192.985 134.379Z" fill="#263238"/>
<path d="M182.033 135.793L182.486 135.732C182.574 135.732 182.641 135.666 182.624 135.61L182.16 133.7C182.142 133.668 182.114 133.643 182.08 133.628C182.046 133.613 182.009 133.609 181.973 133.618L181.52 133.678C181.432 133.678 181.365 133.745 181.382 133.8L181.846 135.71C181.857 135.793 181.945 135.826 182.033 135.793Z" fill="#263238"/>
<path d="M173.803 118.879C174.261 121.01 174.907 123.709 175.851 127.126L176.055 118.465L173.803 118.879Z" fill="#1E5925"/>
<path opacity="0.3" d="M173.803 118.879C174.261 121.01 174.907 123.709 175.851 127.126L176.055 118.465L173.803 118.879Z" fill="black"/>
<path d="M173.025 110.886C170.955 111.72 169.161 118.802 169.161 118.802L176.281 122.268C176.281 122.268 179.72 113.607 178.18 111.918C176.64 110.229 175.409 109.931 173.025 110.886Z" fill="#1E5925"/>
<path opacity="0.1" d="M173.025 110.886C170.955 111.72 169.161 118.802 169.161 118.802L176.281 122.268C176.281 122.268 179.72 113.607 178.18 111.918C176.64 110.229 175.409 109.931 173.025 110.886Z" fill="black"/>
<path d="M185.483 221.451H177.982L177.396 218.934L185.748 218.989L185.483 221.451Z" fill="#1E5925"/>
<path opacity="0.2" d="M185.483 221.451H177.982L177.396 218.934L185.748 218.989L185.483 221.451Z" fill="black"/>
<path d="M178.296 134.288L177.695 134.039C177.547 133.979 177.385 133.959 177.227 133.981C177.069 134.004 176.92 134.067 176.794 134.166C176.669 134.265 176.571 134.395 176.512 134.543C176.453 134.692 176.435 134.853 176.458 135.011L176.894 137.887C176.915 138.031 176.968 138.168 177.048 138.289C177.129 138.41 177.235 138.512 177.36 138.587C177.485 138.662 177.624 138.709 177.769 138.723C177.914 138.737 178.06 138.72 178.197 138.671C178.416 138.591 178.621 138.477 178.804 138.334C179.004 138.168 179.162 137.958 179.265 137.72C179.369 137.483 179.415 137.224 179.4 136.965L179.339 135.773C179.329 135.45 179.225 135.138 179.039 134.875C178.854 134.611 178.596 134.407 178.296 134.288Z" fill="#E4897B"/>
</svg>
