<svg width="20" height="20" viewBox="0 0 20 20" fill="none" xmlns="http://www.w3.org/2000/svg">
<path d="M8.52891 15.8463L2.90391 10.2213C2.87485 10.1922 2.8518 10.1578 2.83607 10.1198C2.82035 10.0819 2.81225 10.0412 2.81225 10.0002C2.81225 9.95911 2.82035 9.91844 2.83607 9.8805C2.8518 9.84257 2.87485 9.8081 2.90391 9.77908L8.52891 4.15408C8.58754 4.09544 8.66707 4.0625 8.75 4.0625C8.83293 4.0625 8.91246 4.09544 8.97109 4.15408C9.02973 4.21272 9.06267 4.29225 9.06267 4.37517C9.06267 4.4581 9.02973 4.53763 8.97109 4.59627L3.87969 9.68767H16.875C16.9579 9.68767 17.0374 9.7206 17.096 9.7792C17.1546 9.83781 17.1875 9.91729 17.1875 10.0002C17.1875 10.0831 17.1546 10.1625 17.096 10.2211C17.0374 10.2798 16.9579 10.3127 16.875 10.3127H3.87969L8.97109 15.4041C9.02973 15.4627 9.06267 15.5422 9.06267 15.6252C9.06267 15.7081 9.02973 15.7876 8.97109 15.8463C8.91246 15.9049 8.83293 15.9378 8.75 15.9378C8.66707 15.9378 8.58754 15.9049 8.52891 15.8463Z" fill="#1E5925"/>
</svg>
