<svg width="20" height="20" viewBox="0 0 20 20" fill="none" xmlns="http://www.w3.org/2000/svg">
<path d="M15 11.7021C15 11.7868 14.9684 11.8679 14.9121 11.9278C14.8559 11.9877 14.7796 12.0213 14.7 12.0213H13.4V13.0851H14.3C14.3796 13.0851 14.4559 13.1187 14.5121 13.1786C14.5684 13.2384 14.6 13.3196 14.6 13.4043C14.6 13.4889 14.5684 13.5701 14.5121 13.6299C14.4559 13.6898 14.3796 13.7234 14.3 13.7234H13.4V14.6809C13.4 14.7655 13.3684 14.8467 13.3121 14.9065C13.2559 14.9664 13.1796 15 13.1 15C13.0204 15 12.9441 14.9664 12.8879 14.9065C12.8316 14.8467 12.8 14.7655 12.8 14.6809V11.7021C12.8 11.6175 12.8316 11.5363 12.8879 11.4765C12.9441 11.4166 13.0204 11.383 13.1 11.383H14.7C14.7796 11.383 14.8559 11.4166 14.9121 11.4765C14.9684 11.5363 15 11.6175 15 11.7021ZM8.4 12.766C8.4 13.1327 8.26304 13.4845 8.01924 13.7439C7.77544 14.0032 7.44478 14.1489 7.1 14.1489H6.6V14.6809C6.6 14.7655 6.56839 14.8467 6.51213 14.9065C6.45587 14.9664 6.37956 15 6.3 15C6.22044 15 6.14413 14.9664 6.08787 14.9065C6.03161 14.8467 6 14.7655 6 14.6809V11.7021C6 11.6175 6.03161 11.5363 6.08787 11.4765C6.14413 11.4166 6.22044 11.383 6.3 11.383H7.1C7.44478 11.383 7.77544 11.5287 8.01924 11.788C8.26304 12.0474 8.4 12.3992 8.4 12.766ZM7.8 12.766C7.8 12.5685 7.72625 12.379 7.59497 12.2394C7.4637 12.0997 7.28565 12.0213 7.1 12.0213H6.6V13.5106H7.1C7.28565 13.5106 7.4637 13.4322 7.59497 13.2925C7.72625 13.1529 7.8 12.9635 7.8 12.766ZM12 13.1915C12 13.6711 11.8209 14.1311 11.5021 14.4703C11.1833 14.8095 10.7509 15 10.3 15H9.5C9.42044 15 9.34413 14.9664 9.28787 14.9065C9.23161 14.8467 9.2 14.7655 9.2 14.6809V11.7021C9.2 11.6175 9.23161 11.5363 9.28787 11.4765C9.34413 11.4166 9.42044 11.383 9.5 11.383H10.3C10.7509 11.383 11.1833 11.5735 11.5021 11.9127C11.8209 12.2518 12 12.7118 12 13.1915ZM11.4 13.1915C11.4 12.8811 11.2841 12.5835 11.0778 12.364C10.8715 12.1446 10.5917 12.0213 10.3 12.0213H9.8V14.3617H10.3C10.5917 14.3617 10.8715 14.2384 11.0778 14.019C11.2841 13.7995 11.4 13.5018 11.4 13.1915ZM6 9.57447V5.74468C6 5.54718 6.07375 5.35777 6.20503 5.21811C6.3363 5.07846 6.51435 5 6.7 5H11.5C11.5395 4.99997 11.5786 5.00822 11.615 5.02428C11.6515 5.04035 11.6846 5.06391 11.7125 5.09362L14.5125 8.07234C14.5686 8.13222 14.6001 8.21333 14.6 8.29787V9.57447C14.6 9.65911 14.5684 9.74029 14.5121 9.80014C14.4559 9.85999 14.3796 9.89362 14.3 9.89362C14.2204 9.89362 14.1441 9.85999 14.0879 9.80014C14.0316 9.74029 14 9.65911 14 9.57447V8.61702H11.5C11.4204 8.61702 11.3441 8.5834 11.2879 8.52354C11.2316 8.46369 11.2 8.38252 11.2 8.29787V5.6383H6.7C6.67348 5.6383 6.64804 5.64951 6.62929 5.66946C6.61054 5.68941 6.6 5.71647 6.6 5.74468V9.57447C6.6 9.65911 6.56839 9.74029 6.51213 9.80014C6.45587 9.85999 6.37956 9.89362 6.3 9.89362C6.22044 9.89362 6.14413 9.85999 6.08787 9.80014C6.03161 9.74029 6 9.65911 6 9.57447ZM11.8 7.97872H13.576L11.8 6.08936V7.97872Z" fill="#414652"/>
</svg>
