<svg width="24" height="24" viewBox="0 0 24 24" fill="none" xmlns="http://www.w3.org/2000/svg">
<path d="M0 4C0 1.79086 1.79086 0 4 0H20C22.2091 0 24 1.79086 24 4V20C24 22.2091 22.2091 24 20 24H4C1.79086 24 0 22.2091 0 20V4Z" fill="#1E5925"/>
<path d="M17.8953 8.38142C17.8536 8.3315 17.8015 8.29135 17.7425 8.2638C17.6836 8.23625 17.6193 8.22198 17.5543 8.22199H8.59305L8.25531 6.36496C8.2367 6.26257 8.18275 6.16995 8.10286 6.10325C8.02297 6.03656 7.9222 6.00002 7.81813 6H6.4444C6.32653 6 6.2135 6.04682 6.13016 6.13016C6.04682 6.2135 6 6.32654 6 6.4444C6 6.56226 6.04682 6.67529 6.13016 6.75864C6.2135 6.84198 6.32653 6.8888 6.4444 6.8888H7.44428L8.86413 14.6819C8.90595 14.913 9.00809 15.129 9.1602 15.3079C8.95025 15.504 8.79872 15.7544 8.7224 16.0314C8.64608 16.3084 8.64795 16.6011 8.72782 16.877C8.80769 17.153 8.96243 17.4014 9.17488 17.5948C9.38733 17.7882 9.6492 17.919 9.93143 17.9726C10.2137 18.0263 10.5052 18.0007 10.7738 17.8988C11.0424 17.7968 11.2775 17.6225 11.4531 17.3951C11.6286 17.1677 11.7378 16.8961 11.7684 16.6104C11.799 16.3248 11.75 16.0362 11.6266 15.7768H14.1497C14.0502 15.9849 13.9988 16.2127 13.9991 16.4434C13.9991 16.751 14.0903 17.0517 14.2612 17.3075C14.4321 17.5633 14.6751 17.7626 14.9593 17.8804C15.2435 17.9981 15.5562 18.0289 15.8579 17.9689C16.1596 17.9088 16.4368 17.7607 16.6543 17.5432C16.8718 17.3257 17.02 17.0485 17.08 16.7468C17.14 16.4451 17.1092 16.1323 16.9915 15.8481C16.8738 15.5639 16.6744 15.321 16.4186 15.1501C16.1628 14.9792 15.8621 14.888 15.5545 14.888H10.1756C10.0716 14.8879 9.97081 14.8514 9.89092 14.7847C9.81103 14.718 9.75708 14.6254 9.73847 14.523L9.56238 13.5548H16.0061C16.3183 13.5547 16.6206 13.4451 16.8603 13.245C17.1 13.0449 17.2618 12.7671 17.3176 12.4599L17.9931 8.74583C18.0045 8.68163 18.0017 8.61571 17.9848 8.55273C17.9679 8.48975 17.9374 8.43127 17.8953 8.38142ZM10.8883 16.4434C10.8883 16.5752 10.8493 16.7041 10.776 16.8137C10.7028 16.9233 10.5987 17.0088 10.4768 17.0592C10.355 17.1097 10.221 17.1229 10.0917 17.0971C9.9624 17.0714 9.84363 17.0079 9.7504 16.9147C9.65718 16.8215 9.59369 16.7027 9.56797 16.5734C9.54225 16.4441 9.55545 16.3101 9.6059 16.1883C9.65635 16.0665 9.74179 15.9623 9.85141 15.8891C9.96104 15.8159 10.0899 15.7768 10.2218 15.7768C10.3985 15.7768 10.5681 15.847 10.6931 15.972C10.8181 16.097 10.8883 16.2666 10.8883 16.4434ZM16.2211 16.4434C16.2211 16.5752 16.182 16.7041 16.1087 16.8137C16.0355 16.9233 15.9314 17.0088 15.8096 17.0592C15.6878 17.1097 15.5538 17.1229 15.4244 17.0971C15.2951 17.0714 15.1764 17.0079 15.0831 16.9147C14.9899 16.8215 14.9264 16.7027 14.9007 16.5734C14.875 16.4441 14.8882 16.3101 14.9386 16.1883C14.9891 16.0665 15.0745 15.9623 15.1842 15.8891C15.2938 15.8159 15.4227 15.7768 15.5545 15.7768C15.7313 15.7768 15.9008 15.847 16.0258 15.972C16.1509 16.097 16.2211 16.2666 16.2211 16.4434ZM16.4433 12.301C16.4246 12.4037 16.3704 12.4965 16.2902 12.5633C16.21 12.63 16.1088 12.6663 16.0044 12.666H9.40073L8.75469 9.11079H17.0216L16.4433 12.301Z" fill="#FCFDFD"/>
</svg>
