<svg width="24" height="24" viewBox="0 0 24 24" fill="none" xmlns="http://www.w3.org/2000/svg">
<path d="M6.96592 10.0833V4.66667C6.96592 4.48986 6.89301 4.32029 6.76321 4.19526C6.63342 4.07024 6.45738 4 6.27382 4C6.09027 4 5.91423 4.07024 5.78444 4.19526C5.65464 4.32029 5.58173 4.48986 5.58173 4.66667V10.0833C4.98623 10.2302 4.45842 10.5638 4.0815 11.0315C3.70459 11.4993 3.5 12.0746 3.5 12.6667C3.5 13.2588 3.70459 13.8341 4.0815 14.3018C4.45842 14.7695 4.98623 15.1031 5.58173 15.25V19.3333C5.58173 19.5101 5.65464 19.6797 5.78444 19.8047C5.91423 19.9298 6.09027 20 6.27382 20C6.45738 20 6.63342 19.9298 6.76321 19.8047C6.89301 19.6797 6.96592 19.5101 6.96592 19.3333V15.25C7.56142 15.1031 8.08923 14.7695 8.46614 14.3018C8.84306 13.8341 9.04765 13.2588 9.04765 12.6667C9.04765 12.0746 8.84306 11.4993 8.46614 11.0315C8.08923 10.5638 7.56142 10.2302 6.96592 10.0833ZM6.27382 14C6.00006 14 5.73244 13.9218 5.50481 13.7753C5.27717 13.6288 5.09976 13.4205 4.99499 13.1769C4.89023 12.9333 4.86281 12.6652 4.91622 12.4065C4.96963 12.1479 5.10146 11.9103 5.29505 11.7239C5.48863 11.5374 5.73527 11.4104 6.00378 11.359C6.27229 11.3075 6.5506 11.3339 6.80353 11.4348C7.05646 11.5357 7.27264 11.7066 7.42474 11.9259C7.57684 12.1452 7.65802 12.403 7.65802 12.6667C7.65802 13.0203 7.51219 13.3594 7.2526 13.6095C6.99301 13.8595 6.64094 14 6.27382 14ZM13.1948 6.08333V4.66667C13.1948 4.48986 13.1219 4.32029 12.9921 4.19526C12.8623 4.07024 12.6863 4 12.5027 4C12.3192 4 12.1431 4.07024 12.0133 4.19526C11.8835 4.32029 11.8106 4.48986 11.8106 4.66667V6.08333C11.2151 6.2302 10.6873 6.5638 10.3104 7.03154C9.93348 7.49928 9.72889 8.07455 9.72889 8.66667C9.72889 9.25878 9.93348 9.83405 10.3104 10.3018C10.6873 10.7695 11.2151 11.1031 11.8106 11.25V19.3333C11.8106 19.5101 11.8835 19.6797 12.0133 19.8047C12.1431 19.9298 12.3192 20 12.5027 20C12.6863 20 12.8623 19.9298 12.9921 19.8047C13.1219 19.6797 13.1948 19.5101 13.1948 19.3333V11.25C13.7903 11.1031 14.3181 10.7695 14.695 10.3018C15.072 9.83405 15.2765 9.25878 15.2765 8.66667C15.2765 8.07455 15.072 7.49928 14.695 7.03154C14.3181 6.5638 13.7903 6.2302 13.1948 6.08333ZM12.5027 10C12.2289 10 11.9613 9.9218 11.7337 9.77529C11.5061 9.62878 11.3286 9.42055 11.2239 9.17691C11.1191 8.93328 11.0917 8.66519 11.1451 8.40655C11.1985 8.1479 11.3304 7.91033 11.5239 7.72386C11.7175 7.53739 11.9642 7.4104 12.2327 7.35895C12.5012 7.30751 12.7795 7.33391 13.0324 7.43483C13.2854 7.53574 13.5015 7.70664 13.6536 7.92591C13.8057 8.14517 13.8869 8.40296 13.8869 8.66667C13.8869 9.02029 13.7411 9.35943 13.4815 9.60948C13.2219 9.85952 12.8698 10 12.5027 10ZM21.5 15.3333C21.4994 14.7421 21.2953 14.1678 20.9196 13.7003C20.5438 13.2329 20.0177 12.8986 19.4237 12.75V4.66667C19.4237 4.48986 19.3508 4.32029 19.221 4.19526C19.0912 4.07024 18.9152 4 18.7316 4C18.548 4 18.372 4.07024 18.2422 4.19526C18.1124 4.32029 18.0395 4.48986 18.0395 4.66667V12.75C17.444 12.8969 16.9162 13.2305 16.5393 13.6982C16.1624 14.1659 15.9578 14.7412 15.9578 15.3333C15.9578 15.9254 16.1624 16.5007 16.5393 16.9685C16.9162 17.4362 17.444 17.7698 18.0395 17.9167V19.3333C18.0395 19.5101 18.1124 19.6797 18.2422 19.8047C18.372 19.9298 18.548 20 18.7316 20C18.9152 20 19.0912 19.9298 19.221 19.8047C19.3508 19.6797 19.4237 19.5101 19.4237 19.3333V17.9167C20.0177 17.768 20.5438 17.4338 20.9196 16.9663C21.2953 16.4989 21.4994 15.9245 21.5 15.3333ZM18.7316 16.6667C18.4578 16.6667 18.1902 16.5885 17.9626 16.442C17.735 16.2955 17.5575 16.0872 17.4528 15.8436C17.348 15.5999 17.3206 15.3319 17.374 15.0732C17.4274 14.8146 17.5592 14.577 17.7528 14.3905C17.9464 14.2041 18.1931 14.0771 18.4616 14.0256C18.7301 13.9742 19.0084 14.0006 19.2613 14.1015C19.5142 14.2024 19.7304 14.3733 19.8825 14.5926C20.0346 14.8118 20.1158 15.0696 20.1158 15.3333C20.1158 15.687 19.97 16.0261 19.7104 16.2761C19.4508 16.5262 19.0987 16.6667 18.7316 16.6667Z" fill="#414652"/>
</svg>
