<svg width="20" height="20" viewBox="0 0 20 20" fill="none" xmlns="http://www.w3.org/2000/svg">
<path d="M15.9132 15.4563L13.1448 12.6879C13.9342 11.78 14.3404 10.601 14.2775 9.39953C14.2147 8.19804 13.6878 7.06788 12.808 6.24728C11.9281 5.42668 10.764 4.97975 9.5611 5.0007C8.35815 5.02166 7.21033 5.50885 6.35959 6.35959C5.50885 7.21033 5.02166 8.35815 5.0007 9.5611C4.97975 10.764 5.42668 11.9281 6.24728 12.808C7.06788 13.6878 8.19804 14.2147 9.39953 14.2775C10.601 14.3404 11.78 13.9342 12.6879 13.1448L15.4563 15.9132C15.5176 15.9703 15.5987 16.0014 15.6824 16C15.7662 15.9985 15.8461 15.9645 15.9053 15.9053C15.9645 15.8461 15.9985 15.7662 16 15.6824C16.0014 15.5987 15.9703 15.5176 15.9132 15.4563ZM5.66272 9.64999C5.66272 8.86138 5.89657 8.09049 6.3347 7.43478C6.77283 6.77908 7.39555 6.26802 8.12413 5.96624C8.85271 5.66445 9.65441 5.58549 10.4279 5.73934C11.2013 5.89319 11.9118 6.27294 12.4694 6.83057C13.027 7.3882 13.4068 8.09866 13.5606 8.87211C13.7145 9.64557 13.6355 10.4473 13.3337 11.1759C13.032 11.9044 12.5209 12.5272 11.8652 12.9653C11.2095 13.4034 10.4386 13.6373 9.64999 13.6373C8.5929 13.636 7.57946 13.2155 6.83198 12.468C6.0845 11.7205 5.66401 10.7071 5.66272 9.64999Z" fill="#414652"/>
</svg>
