<svg width="23" height="23" viewBox="0 0 23 23" fill="none" xmlns="http://www.w3.org/2000/svg">
<path d="M1.91797 5.75L8.54295 9.50376C10.9853 10.8876 12.0173 10.8876 14.4597 9.50376L21.0846 5.75" stroke="#94A3B8" stroke-width="1.5" stroke-linejoin="round"/>
<path d="M1.93308 12.9144C1.99573 15.8523 2.02706 17.3211 3.11106 18.4093C4.19505 19.4974 5.7037 19.5353 8.72101 19.6111C10.5806 19.6579 12.422 19.6579 14.2816 19.6111C17.2989 19.5353 18.8075 19.4974 19.8916 18.4093C20.9756 17.3211 21.0069 15.8523 21.0695 12.9144C21.0897 11.9698 21.0897 11.0308 21.0695 10.0862C21.0069 7.1484 20.9756 5.6795 19.8916 4.59138C18.8075 3.50326 17.2989 3.46535 14.2816 3.38954C12.422 3.34281 10.5806 3.34281 8.721 3.38953C5.7037 3.46533 4.19505 3.50324 3.11105 4.59137C2.02705 5.67949 1.99573 7.14839 1.93307 10.0862C1.91293 11.0308 1.91294 11.9698 1.93308 12.9144Z" stroke="#94A3B8" stroke-width="1.5" stroke-linejoin="round"/>
</svg>
