<svg width="18" height="18" viewBox="0 0 18 18" fill="none" xmlns="http://www.w3.org/2000/svg">
<path d="M9.5 5.89974C9.10674 5.89974 8.72231 6.01116 8.39532 6.21991C8.06833 6.42866 7.81348 6.72537 7.66298 7.07251C7.51249 7.41965 7.47311 7.80164 7.54983 8.17016C7.62656 8.53868 7.81593 8.87719 8.09401 9.14289C8.37209 9.40858 8.72638 9.58951 9.11209 9.66282C9.49779 9.73612 9.89759 9.6985 10.2609 9.55471C10.6242 9.41092 10.9348 9.16742 11.1533 8.855C11.3718 8.54258 11.4884 8.17527 11.4884 7.79953C11.4884 7.29567 11.2789 6.81245 10.906 6.45617C10.5331 6.09989 10.0273 5.89974 9.5 5.89974ZM9.5 9.09939C9.23093 9.09939 8.96789 9.02315 8.74417 8.88032C8.52044 8.73749 8.34606 8.53448 8.24309 8.29696C8.14012 8.05945 8.11318 7.79809 8.16568 7.54594C8.21817 7.29379 8.34774 7.06218 8.53801 6.88039C8.72827 6.6986 8.97068 6.5748 9.23459 6.52465C9.49849 6.47449 9.77203 6.50023 10.0206 6.59862C10.2692 6.697 10.4817 6.86361 10.6312 7.07737C10.7807 7.29113 10.8605 7.54244 10.8605 7.79953C10.8605 8.14427 10.7171 8.4749 10.462 8.71867C10.2069 8.96244 9.86082 9.09939 9.5 9.09939ZM9.5 3.5C8.30695 3.50132 7.16316 3.95473 6.31955 4.76076C5.47594 5.5668 5.00138 6.65963 5 7.79953C5 9.34486 5.75035 10.9862 7.16994 12.546C7.81068 13.2535 8.5318 13.8907 9.32 14.4458C9.37276 14.4811 9.4356 14.5 9.5 14.5C9.5644 14.5 9.62724 14.4811 9.68 14.4458C10.4682 13.8907 11.1893 13.2535 11.8301 12.546C13.2497 10.9862 14 9.34636 14 7.79953C13.9986 6.65963 13.5241 5.5668 12.6805 4.76076C11.8368 3.95473 10.693 3.50132 9.5 3.5ZM9.5 13.8244C8.71512 13.2454 5.62791 10.7802 5.62791 7.79953C5.62791 6.81834 6.03586 5.87733 6.76202 5.18352C7.48817 4.48971 8.47306 4.09993 9.5 4.09993C10.5269 4.09993 11.5118 4.48971 12.238 5.18352C12.9641 5.87733 13.3721 6.81834 13.3721 7.79953C13.3721 10.7802 10.2849 13.2454 9.5 13.8244Z" fill="#414652"/>
</svg>
