<svg width="24" height="24" viewBox="0 0 24 24" fill="none" xmlns="http://www.w3.org/2000/svg">
<path d="M20.8071 16.1492C20.3156 15.3219 19.585 12.9809 19.585 9.92338C19.585 8.08718 18.8386 6.3262 17.51 5.02781C16.1814 3.72943 14.3794 3 12.5004 3C10.6215 3 8.81952 3.72943 7.4909 5.02781C6.16229 6.3262 5.41589 8.08718 5.41589 9.92338C5.41589 12.9818 4.6844 15.3219 4.19291 16.1492C4.0674 16.3596 4.00086 16.5985 4.00001 16.842C3.99915 17.0855 4.06401 17.3249 4.18804 17.5361C4.31207 17.7472 4.49089 17.9227 4.70646 18.0448C4.92203 18.1669 5.16673 18.2313 5.41589 18.2314H9.02989C9.19335 19.013 9.62803 19.7155 10.2604 20.22C10.8928 20.7245 11.6841 21 12.5004 21C13.3168 21 14.1081 20.7245 14.7405 20.22C15.3729 19.7155 15.8075 19.013 15.971 18.2314H19.585C19.8341 18.2311 20.0787 18.1666 20.2941 18.0445C20.5096 17.9223 20.6883 17.7468 20.8122 17.5357C20.9361 17.3245 21.0009 17.0852 21 16.8418C20.9991 16.5984 20.9326 16.3595 20.8071 16.1492ZM12.5004 19.6161C12.061 19.616 11.6325 19.4827 11.2737 19.2348C10.915 18.9868 10.6438 18.6363 10.4973 18.2314H14.5036C14.3571 18.6363 14.0859 18.9868 13.7271 19.2348C13.3684 19.4827 12.9398 19.616 12.5004 19.6161ZM5.41589 16.8468C6.09777 15.7009 6.8328 13.0458 6.8328 9.92338C6.8328 8.45442 7.42992 7.04563 8.49281 6.00692C9.5557 4.96822 10.9973 4.38468 12.5004 4.38468C14.0036 4.38468 15.4452 4.96822 16.5081 6.00692C17.571 7.04563 18.1681 8.45442 18.1681 9.92338C18.1681 13.0432 18.9013 15.6983 19.585 16.8468H5.41589Z" fill="#414652"/>
</svg>
